<?xml version="1.0" encoding="utf-8"?>
<!-- Generator: Adobe Illustrator 16.0.0, SVG Export Plug-In . SVG Version: 6.00 Build 0)  -->
<!DOCTYPE svg PUBLIC "-//W3C//DTD SVG 1.1//EN" "http://www.w3.org/Graphics/SVG/1.1/DTD/svg11.dtd">
<svg version="1.1" id="Layer_1" xmlns="http://www.w3.org/2000/svg" xmlns:xlink="http://www.w3.org/1999/xlink" x="0px" y="0px"
	 width="344.667px" height="343.333px" viewBox="39.5 42.853 344.667 343.333" enable-background="new 39.5 42.853 344.667 343.333"
	 xml:space="preserve">
<g id="Layer_2">
	<g display="none" opacity="0.2">
		<path display="inline" fill="none" d="M195.417,163.938c0,0-3.667-0.167-6.333,0c-2.667,0.167-5.333,1.167-5.333,1.167l-4.667,2
			v0.667c-3-3.333-5.167,40.5,3.167,39.167c8.333-1.333,16.331-21.833,16.331-21.833s3.918-15.5,1.752-18.833
			C198.167,162.937,195.417,163.938,195.417,163.938z"/>
		<path display="inline" fill="none" d="M272.083,167.771v-0.667l-4.899-2c0,0-2.774-1-5.441-1.167c-2.666-0.167-6.396,0-6.396,0
			s-2.781-1-4.947,2.333s1.713,18.833,1.713,18.833s8.238,20.5,16.572,21.833C277.018,208.271,275.083,164.437,272.083,167.771z"/>
		<path display="inline" d="M289.602,244.342c-1.252-12.049-6.314-23.535-8.01-35.583c-1.75-12.446,3.033-25.377,1.434-38.099
			c-1.742-13.852-11.461-17.513-23.865-20.561c0.415-5.115-5.029-6.038-0.529-11.036c2.506-2.783,7.32-3.176,9.357-6.5
			c5.484-8.95-15.607-8.109-19.803-8.307c-7.672-0.36-15.113-0.402-22.605-0.193c-7.52-0.209-15.159-0.167-22.831,0.193
			c-4.195,0.196-25.396-0.645-19.911,8.307c2.037,3.324,6.789,3.717,9.295,6.5c4.5,4.998-0.976,5.92-0.561,11.036
			c-12.404,3.048-22.139,6.709-23.881,20.561c-1.601,12.722,3.175,25.652,1.424,38.099c-1.693,12.048-6.762,23.534-8.014,35.583
			c-0.751,7.233,1.88,15.37,3.42,22.37c2.381,10.817,4.967,20.168,10.494,29.658c4.83,8.291,9.225,16.719,15.023,24.397
			c5.349,7.084,9.621,13.271,3.375,21.468c9.079,6.47,21.104,8.371,32.003,7.668c0.018-0.001,0.033-0.006,0.05-0.008
			c0.019,0.002,0.033,0.007,0.052,0.008c10.898,0.703,22.682-1.198,31.762-7.668c-6.246-8.195-1.971-14.384,3.379-21.468
			c5.8-7.68,10.195-16.106,15.025-24.397c5.527-9.49,8.116-18.841,10.496-29.658C287.721,259.712,290.354,251.576,289.602,244.342z
			 M198.582,185.104c0,0-7.998,20.5-16.331,21.833c-8.334,1.333-6.167-42.5-3.167-39.167v-0.667l4.667-2c0,0,2.666-1,5.333-1.167
			c2.666-0.167,6.333,0,6.333,0s2.75-1,4.917,2.333C202.5,169.604,198.582,185.104,198.582,185.104z M268.684,206.938
			c-8.334-1.333-16.572-21.833-16.572-21.833s-3.879-15.5-1.713-18.833s4.947-2.333,4.947-2.333s3.729-0.167,6.396,0
			s5.441,1.167,5.441,1.167l4.899,2v0.667C275.083,164.437,277.018,208.271,268.684,206.938z"/>
	</g>
	<rect x="40.083" y="42.998" fill="#333333" width="344" height="343.999"/>
	<path fill="none" stroke="#FFFFFF" stroke-width="4" stroke-miterlimit="10" d="M221.58,119.161
		c-4.555-0.204-49.452-0.971-42.742,6.908c7.913,9.293,18.718,11.458,18.149,27.992c-0.763,22.139-25.318,35.952-37.796,53.751
		c-8.107,11.566,10.553,65.614,30.223,88.717l-4.716,6.356l36.819-0.1"/>
	<path fill="none" stroke="#FFFFFF" stroke-width="4" stroke-miterlimit="10" d="M192.486,138.115c0,0-30.632,4.075-27.056,16.19
		c3.577,12.106,4.717,44.945-0.201,45.317"/>
	<path fill="none" stroke="#FFFFFF" stroke-width="4" stroke-miterlimit="10" d="M206.248,119.161c0,0,50.654-2.39,42.742,6.908
		c-7.913,9.293-18.719,11.458-18.149,27.99c0.569,16.53,29.688,42.196,37.796,53.752c8.107,11.567-10.553,65.615-30.223,88.717
		l4.716,6.356l-36.82-0.1"/>
	<path fill="none" stroke="#FFFFFF" stroke-width="4" stroke-miterlimit="10" d="M235.341,138.115c0,0,30.632,4.075,27.056,16.19
		c-3.576,12.106-4.717,44.945,0.201,45.317"/>
	<polyline fill="#FFFFFF" stroke="#FFFFFF" stroke-width="2" stroke-miterlimit="10" points="215.083,213.998 158.083,213.998 
		159.083,234.998 167.75,257.665 171.083,262.998 217.083,262.998 	"/>
	<polyline fill="#FFFFFF" stroke="#FFFFFF" stroke-width="2" stroke-miterlimit="10" points="212.083,213.998 269.083,213.998 
		268.083,234.998 259.417,257.665 256.083,262.998 210.083,262.998 	"/>
	
		<line fill="none" stroke="#FFFFFF" stroke-width="2" stroke-miterlimit="10" x1="270.083" y1="213.998" x2="213.083" y2="213.998"/>
	<rect x="53.583" y="55.498" fill="none" stroke="#FFFFFF" stroke-width="3" stroke-miterlimit="10" width="319" height="318.999"/>
	<line fill="none" stroke="#FFFFFF" stroke-width="4" stroke-miterlimit="10" x1="236.083" y1="97.998" x2="236.083" y2="97.998"/>
</g>
<g id="Layer_3">
</g>
<g id="Layer_1_1_">
</g>
</svg>
