<?xml version="1.0" encoding="utf-8"?>
<!-- Generator: Adobe Illustrator 16.0.0, SVG Export Plug-In . SVG Version: 6.00 Build 0)  -->
<!DOCTYPE svg PUBLIC "-//W3C//DTD SVG 1.1//EN" "http://www.w3.org/Graphics/SVG/1.1/DTD/svg11.dtd">
<svg version="1.1" xmlns="http://www.w3.org/2000/svg" xmlns:xlink="http://www.w3.org/1999/xlink" x="0px" y="0px" width="119px"
	 height="189px" viewBox="0 0 119 189" enable-background="new 0 0 119 189" xml:space="preserve">
<g id="Layer_2">
	<g display="none" opacity="0.2">
		<path display="inline" fill="none" d="M41.333,47.44c0,0-3.667-0.167-6.333,0c-2.667,0.167-5.333,1.167-5.333,1.167l-4.667,2
			v0.667c-3-3.333-5.167,40.5,3.167,39.167c8.333-1.333,16.331-21.833,16.331-21.833s3.918-15.5,1.752-18.833
			C44.083,46.439,41.333,47.44,41.333,47.44z"/>
		<path display="inline" fill="none" d="M118,51.273v-0.667l-4.9-2c0,0-2.774-1-5.441-1.167c-2.666-0.167-6.396,0-6.396,0
			s-2.781-1-4.948,2.333c-2.166,3.333,1.713,18.833,1.713,18.833s8.239,20.5,16.572,21.833C122.934,91.773,121,47.939,118,51.273z"
			/>
		<path display="inline" d="M135.519,127.845c-1.252-12.049-6.315-23.535-8.01-35.583c-1.75-12.446,3.033-25.377,1.433-38.099
			c-1.742-13.851-11.461-17.512-23.865-20.56c0.415-5.115-5.029-6.038-0.529-11.036c2.506-2.783,7.32-3.176,9.357-6.5
			c5.485-8.95-15.607-8.11-19.803-8.307c-7.672-0.36-15.113-0.402-22.605-0.193c-7.519-0.209-15.159-0.167-22.831,0.193
			C44.47,7.957,23.27,7.117,28.754,16.067c2.037,3.324,6.789,3.717,9.295,6.5c4.5,4.998-0.976,5.92-0.561,11.036
			c-12.404,3.048-22.139,6.709-23.881,20.56c-1.601,12.722,3.175,25.653,1.424,38.099c-1.693,12.048-6.762,23.534-8.014,35.583
			c-0.751,7.233,1.88,15.37,3.42,22.37c2.381,10.818,4.967,20.168,10.494,29.658c4.83,8.292,9.225,16.719,15.023,24.398
			c5.349,7.084,9.621,13.272,3.375,21.468c9.079,6.47,21.104,8.371,32.003,7.668c0.017-0.001,0.033-0.006,0.05-0.008
			c0.018,0.002,0.033,0.007,0.051,0.008c10.899,0.703,22.682-1.198,31.762-7.668c-6.246-8.195-1.97-14.384,3.379-21.468
			c5.8-7.68,10.196-16.106,15.025-24.398c5.528-9.49,8.117-18.84,10.497-29.658C133.637,143.215,136.27,135.078,135.519,127.845z
			 M44.498,68.606c0,0-7.998,20.5-16.331,21.833C19.833,91.773,22,47.939,25,51.273v-0.667l4.667-2c0,0,2.666-1,5.333-1.167
			c2.666-0.167,6.333,0,6.333,0s2.75-1,4.917,2.333C48.416,53.106,44.498,68.606,44.498,68.606z M114.6,90.44
			c-8.333-1.333-16.572-21.833-16.572-21.833s-3.879-15.5-1.713-18.833c2.167-3.333,4.948-2.333,4.948-2.333s3.729-0.167,6.396,0
			c2.667,0.167,5.441,1.167,5.441,1.167l4.9,2v0.667C121,47.939,122.934,91.773,114.6,90.44z"/>
	</g>
	<path fill="none" stroke="#333333" stroke-width="4" stroke-miterlimit="10" d="M67.496,2.663
		c-4.555-0.204-49.452-0.97-42.742,6.909c7.913,9.293,18.718,11.458,18.149,27.992C42.14,59.701,17.585,73.516,5.107,91.314
		C-3,102.881,15.66,156.929,35.33,180.031l-4.716,6.356l36.82-0.099"/>
	<path fill="none" stroke="#333333" stroke-width="4" stroke-miterlimit="10" d="M38.402,21.619c0,0-30.632,4.075-27.056,16.19
		c3.577,12.106,4.717,44.945-0.201,45.317"/>
	<path fill="none" stroke="#333333" stroke-width="4" stroke-miterlimit="10" d="M52.164,2.663c0,0,50.655-2.389,42.742,6.909
		c-7.913,9.293-18.718,11.458-18.149,27.99c0.569,16.53,29.689,42.196,37.796,53.752c8.107,11.567-10.553,65.615-30.223,88.717
		l4.716,6.356l-36.82-0.099"/>
	<path fill="none" stroke="#333333" stroke-width="4" stroke-miterlimit="10" d="M81.258,21.619c0,0,30.632,4.075,27.056,16.19
		c-3.577,12.106-4.717,44.945,0.201,45.317"/>
	<polyline fill="#FFFFFF" stroke="#333333" stroke-width="6" stroke-miterlimit="10" points="59,99.5 116,99.5 3,99.5 	"/>
	<line fill="#FFFFFF" stroke="#333333" stroke-width="5" stroke-miterlimit="10" x1="6" y1="118" x2="63" y2="118"/>
	<polyline fill="#FFFFFF" stroke="#333333" stroke-width="4" stroke-miterlimit="10" points="12,136.5 17.5,136.5 69,136.5 	"/>
	<line fill="#FFFFFF" stroke="#333333" stroke-width="5" stroke-miterlimit="10" x1="58" y1="118" x2="115" y2="118"/>
	<line fill="#FFFFFF" stroke="#333333" stroke-width="4" stroke-miterlimit="10" x1="109" y1="136.5" x2="52" y2="136.5"/>
	<line fill="#FFFFFF" stroke="#333333" stroke-width="3" stroke-miterlimit="10" x1="19" y1="154" x2="64" y2="154"/>
	<line fill="#FFFFFF" stroke="#333333" stroke-width="3" stroke-miterlimit="10" x1="100" y1="154" x2="58" y2="154"/>
	<line fill="none" stroke="#333333" stroke-width="4" stroke-miterlimit="10" x1="82" y1="-18.5" x2="82" y2="-18.5"/>
	<polyline fill="#FFFFFF" stroke="#333333" stroke-width="6" stroke-miterlimit="10" points="59,99.5 3,99.5 60,99.5 	"/>
	<path fill="#333333" d="M57.333,114.167"/>
	<polygon fill="#333333" points="39.333,100.167 3,99.5 6.666,119.167 56.333,118.5 113.333,117.833 114.333,106.833 
		115.999,101.167 85.333,99.833 	"/>
	<path fill="#333333" d="M35,136.75"/>
</g>
<g id="Layer_3">
	<polygon fill="#333333" points="12,136.5 107.5,137.25 100.25,153.75 44.25,154.25 19.75,154.75 	"/>
</g>
<g id="Layer_1">
</g>
</svg>
